<?xml version="1.0" encoding="UTF-8" standalone="no"?>
<!-- Created with Inkscape (http://www.inkscape.org/) -->

<svg
   xmlns:dc="http://purl.org/dc/elements/1.1/"
   xmlns:cc="http://creativecommons.org/ns#"
   xmlns:rdf="http://www.w3.org/1999/02/22-rdf-syntax-ns#"
   xmlns:svg="http://www.w3.org/2000/svg"
   xmlns="http://www.w3.org/2000/svg"
   xmlns:sodipodi="http://sodipodi.sourceforge.net/DTD/sodipodi-0.dtd"
   xmlns:inkscape="http://www.inkscape.org/namespaces/inkscape"
   id="svg3133"
   version="1.1"
   inkscape:version="0.48.4 r9939"
   width="19"
   height="19"
   xml:space="preserve"
   sodipodi:docname="close.svg"><metadata
     id="metadata3139"><rdf:RDF><cc:Work
         rdf:about=""><dc:format>image/svg+xml</dc:format><dc:type
           rdf:resource="http://purl.org/dc/dcmitype/StillImage" /><dc:title></dc:title></cc:Work></rdf:RDF></metadata><defs
     id="defs3137" /><sodipodi:namedview
     pagecolor="#ffffff"
     bordercolor="#666666"
     borderopacity="1"
     objecttolerance="10"
     gridtolerance="10"
     guidetolerance="10"
     inkscape:pageopacity="0"
     inkscape:pageshadow="2"
     inkscape:window-width="852"
     inkscape:window-height="480"
     id="namedview3135"
     showgrid="false"
     inkscape:zoom="12.276024"
     inkscape:cx="2.0188134"
     inkscape:cy="9.3485497"
     inkscape:window-x="160"
     inkscape:window-y="161"
     inkscape:window-maximized="0"
     inkscape:current-layer="g3141" /><g
     id="g3141"
     inkscape:groupmode="layer"
     inkscape:label="ink_ext_XXXXXX"
     transform="matrix(1.25,0,0,-1.25,0,19)"><g
       id="g3143"
       transform="matrix(0.0121658,0,0,0.01216574,2.3663065,2.3103727)"><path
         d="m 430.199,7.36719 c 236.063,0 427.426,191.36681 427.426,427.43381 0,236.058 -191.363,427.426 -427.426,427.426 C 194.137,862.227 2.76953,670.859 2.76953,434.801 2.76953,198.734 194.137,7.36719 430.199,7.36719"
         style="fill:#d52735;fill-opacity:1;fill-rule:evenodd;stroke:none"
         id="path3145"
         inkscape:connector-curvature="0" /><path
         d="m 430.199,43.7227 c 215.985,0 391.074,175.0903 391.074,391.0783 0,215.98 -175.089,391.07 -391.074,391.07 -215.984,0 -391.0779,-175.09 -391.0779,-391.07 0,-215.988 175.0939,-391.0783 391.0779,-391.0783"
         style="fill:#f25056;fill-opacity:1;fill-rule:evenodd;stroke:none"
         id="path3147"
         inkscape:connector-curvature="0" /></g></g></svg>