<?xml version="1.0" encoding="UTF-8" standalone="no"?>
<!-- Created with Inkscape (http://www.inkscape.org/) -->

<svg
   xmlns:dc="http://purl.org/dc/elements/1.1/"
   xmlns:cc="http://creativecommons.org/ns#"
   xmlns:rdf="http://www.w3.org/1999/02/22-rdf-syntax-ns#"
   xmlns:svg="http://www.w3.org/2000/svg"
   xmlns="http://www.w3.org/2000/svg"
   xmlns:sodipodi="http://sodipodi.sourceforge.net/DTD/sodipodi-0.dtd"
   xmlns:inkscape="http://www.inkscape.org/namespaces/inkscape"
   id="svg3113"
   version="1.1"
   inkscape:version="0.48.4 r9939"
   width="19"
   height="19"
   xml:space="preserve"
   sodipodi:docname="close_focused_pressed.svg"><metadata
     id="metadata3119"><rdf:RDF><cc:Work
         rdf:about=""><dc:format>image/svg+xml</dc:format><dc:type
           rdf:resource="http://purl.org/dc/dcmitype/StillImage" /><dc:title /></cc:Work></rdf:RDF></metadata><defs
     id="defs3117" /><sodipodi:namedview
     pagecolor="#ffffff"
     bordercolor="#666666"
     borderopacity="1"
     objecttolerance="10"
     gridtolerance="10"
     guidetolerance="10"
     inkscape:pageopacity="0"
     inkscape:pageshadow="2"
     inkscape:window-width="885"
     inkscape:window-height="480"
     id="namedview3115"
     showgrid="false"
     inkscape:zoom="2.1701149"
     inkscape:cx="54.374999"
     inkscape:cy="54.374999"
     inkscape:window-x="63"
     inkscape:window-y="30"
     inkscape:window-maximized="0"
     inkscape:current-layer="g3123" /><g
     id="g3121"
     inkscape:groupmode="layer"
     inkscape:label="ink_ext_XXXXXX"
     transform="matrix(1.25,0,0,-1.25,0,19)"><g
       id="g3123"
       transform="scale(0.1,0.1)"><g
         id="g2987"
         transform="matrix(0.12165741,0,0,0.12165799,23.322805,22.826666)"><path
           inkscape:connector-curvature="0"
           id="path3125"
           style="fill:#d52735;fill-opacity:1;fill-rule:evenodd;stroke:none"
           d="M 433,9.64453 C 669.059,9.64453 860.426,201.012 860.426,437.07 860.426,673.133 669.059,864.5 433,864.5 196.934,864.5 5.56641,673.133 5.56641,437.07 5.56641,201.012 196.934,9.64453 433,9.64453" /><path
           inkscape:connector-curvature="0"
           id="path3127"
           style="fill:#d52735;fill-opacity:1;fill-rule:evenodd;stroke:none"
           d="M 433,45.9961 C 648.98,45.9961 824.07,221.09 824.07,437.07 824.07,653.059 648.98,828.148 433,828.148 217.012,828.148 41.9219,653.059 41.9219,437.07 41.9219,221.09 217.012,45.9961 433,45.9961" /><path
           inkscape:connector-curvature="0"
           id="path3129"
           style="fill:#9f1d2b;fill-opacity:1;fill-rule:evenodd;stroke:none"
           d="m 231.395,285.789 352.886,352.883 c 13.657,13.66 36,13.66 49.664,0 l 0.653,-0.656 c 13.66,-13.657 13.66,-36.004 0.004,-49.661 L 281.715,235.473 c -13.66,-13.66 -36.004,-13.66 -49.66,0 l -0.66,0.652 c -13.657,13.66 -13.657,36.004 0,49.664" /><path
           inkscape:connector-curvature="0"
           id="path3131"
           style="fill:#9f1d2b;fill-opacity:1;fill-rule:evenodd;stroke:none"
           d="M 281.715,638.672 634.598,285.789 c 13.656,-13.656 13.656,-36.004 0,-49.664 l -0.657,-0.652 c -13.66,-13.66 -36.003,-13.66 -49.66,0 L 231.395,588.355 c -13.661,13.657 -13.661,36.004 0,49.661 l 0.656,0.656 c 13.66,13.66 36.004,13.66 49.664,0" /></g></g></g></svg>