<?xml version="1.0" encoding="UTF-8" standalone="no"?>
<!-- Created with Inkscape (http://www.inkscape.org/) -->

<svg
   xmlns:dc="http://purl.org/dc/elements/1.1/"
   xmlns:cc="http://creativecommons.org/ns#"
   xmlns:rdf="http://www.w3.org/1999/02/22-rdf-syntax-ns#"
   xmlns:svg="http://www.w3.org/2000/svg"
   xmlns="http://www.w3.org/2000/svg"
   xmlns:sodipodi="http://sodipodi.sourceforge.net/DTD/sodipodi-0.dtd"
   xmlns:inkscape="http://www.inkscape.org/namespaces/inkscape"
   id="svg3165"
   version="1.1"
   inkscape:version="0.48.4 r9939"
   width="19"
   height="19"
   xml:space="preserve"
   sodipodi:docname="close_focused_normal.svg"><metadata
     id="metadata3171"><rdf:RDF><cc:Work
         rdf:about=""><dc:format>image/svg+xml</dc:format><dc:type
           rdf:resource="http://purl.org/dc/dcmitype/StillImage" /><dc:title /></cc:Work></rdf:RDF></metadata><defs
     id="defs3169" /><sodipodi:namedview
     pagecolor="#ffffff"
     bordercolor="#666666"
     borderopacity="1"
     objecttolerance="10"
     gridtolerance="10"
     guidetolerance="10"
     inkscape:pageopacity="0"
     inkscape:pageshadow="2"
     inkscape:window-width="743"
     inkscape:window-height="480"
     id="namedview3167"
     showgrid="false"
     inkscape:zoom="2.1953488"
     inkscape:cx="54.375"
     inkscape:cy="53.75"
     inkscape:window-x="63"
     inkscape:window-y="30"
     inkscape:window-maximized="0"
     inkscape:current-layer="g3173" /><g
     id="g3173"
     inkscape:groupmode="layer"
     inkscape:label="ink_ext_XXXXXX"
     transform="matrix(1.25,0,0,-1.25,0,107.5)"><g
       id="g3175"
       transform="matrix(0.01216574,0,0,0.01216574,2.3322805,73.147107)"><path
         d="m 433,4.34766 c 236.059,0 427.426,191.36734 427.426,427.42934 0,236.063 -191.367,427.43 -427.426,427.43 C 196.934,859.207 5.56641,667.84 5.56641,431.777 5.56641,195.715 196.934,4.34766 433,4.34766"
         style="fill:#d52735;fill-opacity:1;fill-rule:evenodd;stroke:none"
         id="path3177"
         inkscape:connector-curvature="0" /><path
         d="m 433,40.6992 c 215.98,0 391.07,175.0938 391.07,391.0778 C 824.07,647.762 648.98,822.852 433,822.852 217.012,822.852 41.9219,647.762 41.9219,431.777 41.9219,215.793 217.012,40.6992 433,40.6992"
         style="fill:#f25056;fill-opacity:1;fill-rule:evenodd;stroke:none"
         id="path3179"
         inkscape:connector-curvature="0" /><path
         d="m 231.395,280.492 352.886,352.887 c 13.657,13.656 36,13.656 49.664,0 l 0.653,-0.66 c 13.66,-13.656 13.66,-36 0.004,-49.66 L 281.715,230.176 c -13.66,-13.66 -36.004,-13.66 -49.66,0 l -0.66,0.652 c -13.657,13.66 -13.657,36.008 0,49.664"
         style="fill:#9f1d2b;fill-opacity:1;fill-rule:evenodd;stroke:none"
         id="path3181"
         inkscape:connector-curvature="0" /><path
         d="M 281.715,633.379 634.598,280.492 c 13.656,-13.656 13.656,-36.004 0,-49.66 l -0.657,-0.656 c -13.66,-13.66 -36.003,-13.66 -49.66,0 L 231.395,583.059 c -13.661,13.66 -13.661,36.004 0,49.664 l 0.656,0.656 c 13.66,13.66 36.004,13.66 49.664,0"
         style="fill:#9f1d2b;fill-opacity:1;fill-rule:evenodd;stroke:none"
         id="path3183"
         inkscape:connector-curvature="0" /></g></g></svg>