<?xml version="1.0" encoding="UTF-8" standalone="no"?>
<!-- Created with Inkscape (http://www.inkscape.org/) -->

<svg
   xmlns:dc="http://purl.org/dc/elements/1.1/"
   xmlns:cc="http://creativecommons.org/ns#"
   xmlns:rdf="http://www.w3.org/1999/02/22-rdf-syntax-ns#"
   xmlns:svg="http://www.w3.org/2000/svg"
   xmlns="http://www.w3.org/2000/svg"
   xmlns:sodipodi="http://sodipodi.sourceforge.net/DTD/sodipodi-0.dtd"
   xmlns:inkscape="http://www.inkscape.org/namespaces/inkscape"
   id="svg3149"
   version="1.1"
   inkscape:version="0.48.4 r9939"
   width="19"
   height="19"
   xml:space="preserve"
   sodipodi:docname="close_unfocused_prelight.svg"><metadata
     id="metadata3155"><rdf:RDF><cc:Work
         rdf:about=""><dc:format>image/svg+xml</dc:format><dc:type
           rdf:resource="http://purl.org/dc/dcmitype/StillImage" /><dc:title></dc:title></cc:Work></rdf:RDF></metadata><defs
     id="defs3153" /><sodipodi:namedview
     pagecolor="#ffffff"
     bordercolor="#666666"
     borderopacity="1"
     objecttolerance="10"
     gridtolerance="10"
     guidetolerance="10"
     inkscape:pageopacity="0"
     inkscape:pageshadow="2"
     inkscape:window-width="940"
     inkscape:window-height="624"
     id="namedview3151"
     showgrid="false"
     inkscape:zoom="35.125581"
     inkscape:cx="7.6951087"
     inkscape:cy="9.5029573"
     inkscape:window-x="431"
     inkscape:window-y="158"
     inkscape:window-maximized="0"
     inkscape:current-layer="g3157" /><g
     id="g3157"
     inkscape:groupmode="layer"
     inkscape:label="ink_ext_XXXXXX"
     transform="matrix(1.25,0,0,-1.25,0,19)"><path
       inkscape:connector-curvature="0"
       id="path3161"
       style="fill:#b4b4b4;fill-opacity:1;fill-rule:evenodd;stroke:none"
       d="m 7.5999958,2.4000001 c 2.8718812,0 5.2000022,2.3280924 5.2000022,5.2000241 0,2.8718468 -2.328121,5.1999788 -5.2000022,5.1999788 C 4.7281269,12.800003 2.4,10.471871 2.4,7.6000242 2.4,4.7280925 4.7281269,2.4000001 7.5999958,2.4000001" /><path
       inkscape:connector-curvature="0"
       id="path3163"
       style="fill:#c7c7c7;fill-opacity:1;fill-rule:evenodd;stroke:none"
       d="m 7.5999958,2.8422463 c 2.6276172,0 4.7577532,2.1301111 4.7577532,4.7577779 0,2.6275698 -2.130136,4.7577278 -4.7577532,4.7577278 -2.6276052,0 -4.7577521,-2.130158 -4.7577521,-4.7577278 0,-2.6276668 2.1301469,-4.7577779 4.7577521,-4.7577779" /><path
       inkscape:connector-curvature="0"
       id="path3129"
       style="fill:#b4b4b4;fill-opacity:1;fill-rule:evenodd;stroke:none"
       d="m 5.1473719,5.7595184 4.2931193,4.2931036 c 0.1661475,0.166185 0.4379667,0.166185 0.6041998,0 l 0.0079,-0.008 c 0.166184,-0.1661487 0.166184,-0.4380178 4.8e-5,-0.6041661 L 5.7595519,5.147384 c -0.166184,-0.1661848 -0.4380153,-0.1661848 -0.6041506,0 l -0.00803,0.00793 c -0.1661475,0.1661849 -0.1661475,0.4380175 0,0.6042023" /><path
       inkscape:connector-curvature="0"
       id="path3131"
       style="fill:#b4b4b4;fill-opacity:1;fill-rule:evenodd;stroke:none"
       d="M 5.7595519,10.052622 10.052635,5.7595184 c 0.166135,-0.1661361 0.166135,-0.4380174 0,-0.6042023 l -0.008,-0.00793 c -0.1661841,-0.1661848 -0.4380033,-0.1661848 -0.6041508,0 L 5.1473719,9.4404759 c -0.1661962,0.1661483 -0.1661962,0.4380174 0,0.6041661 l 0.00798,0.008 c 0.166184,0.166185 0.4380153,0.166185 0.6041993,0" /></g></svg>