<?xml version="1.0" encoding="UTF-8" standalone="no"?>
<!-- Created with Inkscape (http://www.inkscape.org/) -->

<svg
   xmlns:dc="http://purl.org/dc/elements/1.1/"
   xmlns:cc="http://creativecommons.org/ns#"
   xmlns:rdf="http://www.w3.org/1999/02/22-rdf-syntax-ns#"
   xmlns:svg="http://www.w3.org/2000/svg"
   xmlns="http://www.w3.org/2000/svg"
   xmlns:sodipodi="http://sodipodi.sourceforge.net/DTD/sodipodi-0.dtd"
   xmlns:inkscape="http://www.inkscape.org/namespaces/inkscape"
   id="svg3063"
   version="1.1"
   inkscape:version="0.48.4 r9939"
   width="19"
   height="19"
   xml:space="preserve"
   sodipodi:docname="maximize.svg"><metadata
     id="metadata3069"><rdf:RDF><cc:Work
         rdf:about=""><dc:format>image/svg+xml</dc:format><dc:type
           rdf:resource="http://purl.org/dc/dcmitype/StillImage" /><dc:title /></cc:Work></rdf:RDF></metadata><defs
     id="defs3067" /><sodipodi:namedview
     pagecolor="#ffffff"
     bordercolor="#666666"
     borderopacity="1"
     objecttolerance="10"
     gridtolerance="10"
     guidetolerance="10"
     inkscape:pageopacity="0"
     inkscape:pageshadow="2"
     inkscape:window-width="1014"
     inkscape:window-height="612"
     id="namedview3065"
     showgrid="false"
     inkscape:zoom="2.1701149"
     inkscape:cx="54.374999"
     inkscape:cy="54.374999"
     inkscape:window-x="63"
     inkscape:window-y="30"
     inkscape:window-maximized="0"
     inkscape:current-layer="g3071" /><g
     id="g3071"
     inkscape:groupmode="layer"
     inkscape:label="ink_ext_XXXXXX"
     transform="matrix(1.25,0,0,-1.25,0,19)"><g
       id="g3073"
       transform="matrix(0.0121658,0,0,0.01216574,2.3175957,2.3103727)"><path
         d="m 434.203,7.36719 c 236.063,0 427.426,191.36681 427.426,427.43381 0,236.058 -191.363,427.426 -427.426,427.426 C 198.141,862.227 6.77344,670.859 6.77344,434.801 6.77344,198.734 198.141,7.36719 434.203,7.36719"
         style="fill:#13c11e;fill-opacity:1;fill-rule:evenodd;stroke:none"
         id="path3075"
         inkscape:connector-curvature="0" /><path
         d="m 434.203,43.7227 c 215.985,0 391.078,175.0903 391.078,391.0783 0,215.98 -175.093,391.07 -391.078,391.07 -215.984,0 -391.078,-175.09 -391.078,-391.07 0,-215.988 175.094,-391.0783 391.078,-391.0783"
         style="fill:#39ea49;fill-opacity:1;fill-rule:evenodd;stroke:none"
         id="path3077"
         inkscape:connector-curvature="0" /></g></g></svg>