<?xml version="1.0" encoding="UTF-8" standalone="no"?>
<!-- Created with Inkscape (http://www.inkscape.org/) -->

<svg
   xmlns:dc="http://purl.org/dc/elements/1.1/"
   xmlns:cc="http://creativecommons.org/ns#"
   xmlns:rdf="http://www.w3.org/1999/02/22-rdf-syntax-ns#"
   xmlns:svg="http://www.w3.org/2000/svg"
   xmlns="http://www.w3.org/2000/svg"
   xmlns:sodipodi="http://sodipodi.sourceforge.net/DTD/sodipodi-0.dtd"
   xmlns:inkscape="http://www.inkscape.org/namespaces/inkscape"
   id="svg3095"
   version="1.1"
   inkscape:version="0.48.4 r9939"
   width="19"
   height="19"
   xml:space="preserve"
   sodipodi:docname="maximize_focused_dash.svg"><metadata
     id="metadata3101"><rdf:RDF><cc:Work
         rdf:about=""><dc:format>image/svg+xml</dc:format><dc:type
           rdf:resource="http://purl.org/dc/dcmitype/StillImage" /><dc:title /></cc:Work></rdf:RDF></metadata><defs
     id="defs3099" /><sodipodi:namedview
     pagecolor="#ffffff"
     bordercolor="#666666"
     borderopacity="1"
     objecttolerance="10"
     gridtolerance="10"
     guidetolerance="10"
     inkscape:pageopacity="0"
     inkscape:pageshadow="2"
     inkscape:window-width="776"
     inkscape:window-height="480"
     id="namedview3097"
     showgrid="false"
     inkscape:zoom="2.1953488"
     inkscape:cx="54.374999"
     inkscape:cy="53.749999"
     inkscape:window-x="55"
     inkscape:window-y="21"
     inkscape:window-maximized="0"
     inkscape:current-layer="g3103" /><g
     id="g3103"
     inkscape:groupmode="layer"
     inkscape:label="ink_ext_XXXXXX"
     transform="matrix(1.25,0,0,-1.25,0,19)"><g
       id="g3105"
       transform="matrix(0.01216574,0,0,0.01216574,2.2835701,2.3471075)"><path
         d="m 437.004,4.34766 c 236.059,0 427.426,191.36734 427.426,427.42934 0,236.063 -191.367,427.43 -427.426,427.43 C 200.938,859.207 9.57031,667.84 9.57031,431.777 9.57031,195.715 200.938,4.34766 437.004,4.34766"
         style="fill:#13c11e;fill-opacity:1;fill-rule:evenodd;stroke:none"
         id="path3107"
         inkscape:connector-curvature="0" /><path
         d="m 437.004,40.6992 c 215.984,0 391.074,175.0938 391.074,391.0778 0,215.985 -175.09,391.075 -391.074,391.075 -215.988,0 -391.0782,-175.09 -391.0782,-391.075 0,-215.984 175.0902,-391.0778 391.0782,-391.0778"
         style="fill:#39ea49;fill-opacity:1;fill-rule:evenodd;stroke:none"
         id="path3109"
         inkscape:connector-curvature="0" /><path
         d="m 321.367,649.883 267.199,0 c 35.579,0 64.692,-29.113 64.692,-64.695 l 0,-267.196 -331.891,331.891 z m 232.324,-436.211 -268.253,0 c -35.583,0 -64.692,29.109 -64.692,64.691 l 0,268.254 332.945,-332.945"
         style="fill:#0b7407;fill-opacity:1;fill-rule:evenodd;stroke:none"
         id="path3111"
         inkscape:connector-curvature="0" /></g></g></svg>