<?xml version="1.0" encoding="UTF-8" standalone="no"?>
<!-- Created with Inkscape (http://www.inkscape.org/) -->

<svg
   xmlns:dc="http://purl.org/dc/elements/1.1/"
   xmlns:cc="http://creativecommons.org/ns#"
   xmlns:rdf="http://www.w3.org/1999/02/22-rdf-syntax-ns#"
   xmlns:svg="http://www.w3.org/2000/svg"
   xmlns="http://www.w3.org/2000/svg"
   xmlns:sodipodi="http://sodipodi.sourceforge.net/DTD/sodipodi-0.dtd"
   xmlns:inkscape="http://www.inkscape.org/namespaces/inkscape"
   id="svg3149"
   version="1.1"
   inkscape:version="0.48.4 r9939"
   width="19"
   height="19"
   xml:space="preserve"
   sodipodi:docname="close_unfocused.svg"><metadata
     id="metadata3155"><rdf:RDF><cc:Work
         rdf:about=""><dc:format>image/svg+xml</dc:format><dc:type
           rdf:resource="http://purl.org/dc/dcmitype/StillImage" /><dc:title /></cc:Work></rdf:RDF></metadata><defs
     id="defs3153" /><sodipodi:namedview
     pagecolor="#ffffff"
     bordercolor="#666666"
     borderopacity="1"
     objecttolerance="10"
     gridtolerance="10"
     guidetolerance="10"
     inkscape:pageopacity="0"
     inkscape:pageshadow="2"
     inkscape:window-width="940"
     inkscape:window-height="624"
     id="namedview3151"
     showgrid="false"
     inkscape:zoom="2.1953488"
     inkscape:cx="53.749999"
     inkscape:cy="53.749999"
     inkscape:window-x="63"
     inkscape:window-y="30"
     inkscape:window-maximized="0"
     inkscape:current-layer="g3157" /><g
     id="g3157"
     inkscape:groupmode="layer"
     inkscape:label="ink_ext_XXXXXX"
     transform="matrix(1.25,0,0,-1.25,0,19)"><g
       id="g3159"
       transform="matrix(0.01216574,0,0,0.0121658,2.3663066,2.3443986)"><path
         d="m 430.199,4.57031 c 236.063,0 427.43,191.36369 427.43,427.42969 0,236.059 -191.367,427.426 -427.43,427.426 C 194.137,859.426 2.76953,668.059 2.76953,432 2.76953,195.934 194.137,4.57031 430.199,4.57031"
         style="fill:#b4b4b4;fill-opacity:1;fill-rule:evenodd;stroke:none"
         id="path3161"
         inkscape:connector-curvature="0" /><path
         d="m 430.199,40.9219 c 215.985,0 391.078,175.0901 391.078,391.0781 0,215.98 -175.093,391.074 -391.078,391.074 C 214.215,823.074 39.1211,647.98 39.1211,432 39.1211,216.012 214.215,40.9219 430.199,40.9219"
         style="fill:#c7c7c7;fill-opacity:1;fill-rule:evenodd;stroke:none"
         id="path3163"
         inkscape:connector-curvature="0" /></g></g></svg>