<?xml version="1.0" encoding="UTF-8" standalone="no"?>
<!-- Created with Inkscape (http://www.inkscape.org/) -->

<svg
   xmlns:dc="http://purl.org/dc/elements/1.1/"
   xmlns:cc="http://creativecommons.org/ns#"
   xmlns:rdf="http://www.w3.org/1999/02/22-rdf-syntax-ns#"
   xmlns:svg="http://www.w3.org/2000/svg"
   xmlns="http://www.w3.org/2000/svg"
   xmlns:sodipodi="http://sodipodi.sourceforge.net/DTD/sodipodi-0.dtd"
   xmlns:inkscape="http://www.inkscape.org/namespaces/inkscape"
   id="svg3027"
   version="1.1"
   inkscape:version="0.48.4 r9939"
   width="19"
   height="19"
   xml:space="preserve"
   sodipodi:docname="min-hover.svg"><metadata
     id="metadata3033"><rdf:RDF><cc:Work
         rdf:about=""><dc:format>image/svg+xml</dc:format><dc:type
           rdf:resource="http://purl.org/dc/dcmitype/StillImage" /><dc:title /></cc:Work></rdf:RDF></metadata><defs
     id="defs3031" /><sodipodi:namedview
     pagecolor="#ffffff"
     bordercolor="#666666"
     borderopacity="1"
     objecttolerance="10"
     gridtolerance="10"
     guidetolerance="10"
     inkscape:pageopacity="0"
     inkscape:pageshadow="2"
     inkscape:window-width="844"
     inkscape:window-height="480"
     id="namedview3029"
     showgrid="false"
     inkscape:zoom="2.1953488"
     inkscape:cx="54.374999"
     inkscape:cy="53.749999"
     inkscape:window-x="63"
     inkscape:window-y="30"
     inkscape:window-maximized="0"
     inkscape:current-layer="g3035" /><g
     id="g3035"
     inkscape:groupmode="layer"
     inkscape:label="ink_ext_XXXXXX"
     transform="matrix(1.25,0,0,-1.25,0,19)"><g
       id="g3037"
       transform="matrix(0.01216574,0,0,0.01216579,2.3318053,2.3762862)"><path
         d="m 433.035,1.94922 c 236.063,0 427.43,191.36678 427.43,427.42978 0,236.059 -191.367,427.426 -427.43,427.426 C 196.973,856.805 5.60547,665.438 5.60547,429.379 5.60547,193.316 196.973,1.94922 433.035,1.94922"
         style="fill:#da9e10;fill-opacity:1;fill-rule:evenodd;stroke:none"
         id="path3039"
         inkscape:connector-curvature="0" /><path
         d="m 433.035,38.3008 c 215.985,0 391.074,175.0902 391.074,391.0782 0,215.984 -175.089,391.074 -391.074,391.074 -215.984,0 -391.078,-175.09 -391.078,-391.074 0,-215.988 175.094,-391.0782 391.078,-391.0782"
         style="fill:#fac536;fill-opacity:1;fill-rule:evenodd;stroke:none"
         id="path3041"
         inkscape:connector-curvature="0" /><path
         d="m 183.508,464.957 499.055,0 c 19.316,0 35.117,-15.797 35.117,-35.117 l 0,-0.926 c 0,-19.32 -15.801,-35.117 -35.117,-35.117 l -499.055,0 c -19.317,0 -35.117,15.797 -35.117,35.117 l 0,0.926 c 0,19.32 15.8,35.117 35.117,35.117"
         style="fill:#975914;fill-opacity:1;fill-rule:evenodd;stroke:none"
         id="path3043"
         inkscape:connector-curvature="0" /></g></g></svg>