<?xml version="1.0" encoding="UTF-8" standalone="no"?>
<!-- Created with Inkscape (http://www.inkscape.org/) -->

<svg
   xmlns:dc="http://purl.org/dc/elements/1.1/"
   xmlns:cc="http://creativecommons.org/ns#"
   xmlns:rdf="http://www.w3.org/1999/02/22-rdf-syntax-ns#"
   xmlns:svg="http://www.w3.org/2000/svg"
   xmlns="http://www.w3.org/2000/svg"
   xmlns:sodipodi="http://sodipodi.sourceforge.net/DTD/sodipodi-0.dtd"
   xmlns:inkscape="http://www.inkscape.org/namespaces/inkscape"
   id="svg2995"
   version="1.1"
   inkscape:version="0.48.4 r9939"
   width="19"
   height="19"
   xml:space="preserve"
   sodipodi:docname="minimize.svg"><metadata
     id="metadata3001"><rdf:RDF><cc:Work
         rdf:about=""><dc:format>image/svg+xml</dc:format><dc:type
           rdf:resource="http://purl.org/dc/dcmitype/StillImage" /><dc:title /></cc:Work></rdf:RDF></metadata><defs
     id="defs2999" /><sodipodi:namedview
     pagecolor="#ffffff"
     bordercolor="#666666"
     borderopacity="1"
     objecttolerance="10"
     gridtolerance="10"
     guidetolerance="10"
     inkscape:pageopacity="0"
     inkscape:pageshadow="2"
     inkscape:window-width="805"
     inkscape:window-height="480"
     id="namedview2997"
     showgrid="false"
     inkscape:zoom="2.1701149"
     inkscape:cx="54.374999"
     inkscape:cy="54.374999"
     inkscape:window-x="63"
     inkscape:window-y="30"
     inkscape:window-maximized="0"
     inkscape:current-layer="g3003" /><g
     id="g3003"
     inkscape:groupmode="layer"
     inkscape:label="ink_ext_XXXXXX"
     transform="matrix(1.25,0,0,-1.25,0,19)"><g
       id="g3005"
       transform="matrix(0.01216574,0,0,0.01216574,2.3318053,2.3103727)"><path
         d="m 433.035,7.36719 c 236.063,0 427.43,191.36681 427.43,427.43381 0,236.058 -191.367,427.426 -427.43,427.426 C 196.973,862.227 5.60547,670.859 5.60547,434.801 5.60547,198.734 196.973,7.36719 433.035,7.36719"
         style="fill:#da9e10;fill-opacity:1;fill-rule:evenodd;stroke:none"
         id="path3007"
         inkscape:connector-curvature="0" /><path
         d="m 433.035,43.7227 c 215.985,0 391.074,175.0903 391.074,391.0783 0,215.98 -175.089,391.07 -391.074,391.07 -215.984,0 -391.078,-175.09 -391.078,-391.07 0,-215.988 175.094,-391.0783 391.078,-391.0783"
         style="fill:#fac536;fill-opacity:1;fill-rule:evenodd;stroke:none"
         id="path3009"
         inkscape:connector-curvature="0" /></g></g></svg>