<?xml version="1.0" encoding="UTF-8" standalone="no"?>
<!-- Created with Inkscape (http://www.inkscape.org/) -->

<svg
   xmlns:dc="http://purl.org/dc/elements/1.1/"
   xmlns:cc="http://creativecommons.org/ns#"
   xmlns:rdf="http://www.w3.org/1999/02/22-rdf-syntax-ns#"
   xmlns:svg="http://www.w3.org/2000/svg"
   xmlns="http://www.w3.org/2000/svg"
   xmlns:sodipodi="http://sodipodi.sourceforge.net/DTD/sodipodi-0.dtd"
   xmlns:inkscape="http://www.inkscape.org/namespaces/inkscape"
   id="svg2"
   version="1.1"
   inkscape:version="0.48.4 r9939"
   width="19"
   height="19"
   xml:space="preserve"
   sodipodi:docname="min-press.svg"><metadata
     id="metadata8"><rdf:RDF><cc:Work
         rdf:about=""><dc:format>image/svg+xml</dc:format><dc:type
           rdf:resource="http://purl.org/dc/dcmitype/StillImage" /><dc:title /></cc:Work></rdf:RDF></metadata><defs
     id="defs6" /><sodipodi:namedview
     pagecolor="#ffffff"
     bordercolor="#666666"
     borderopacity="1"
     objecttolerance="10"
     gridtolerance="10"
     guidetolerance="10"
     inkscape:pageopacity="0"
     inkscape:pageshadow="2"
     inkscape:window-width="844"
     inkscape:window-height="480"
     id="namedview4"
     showgrid="false"
     inkscape:zoom="2.1701149"
     inkscape:cx="54.374999"
     inkscape:cy="54.374999"
     inkscape:window-x="63"
     inkscape:window-y="30"
     inkscape:window-maximized="0"
     inkscape:current-layer="g10" /><g
     id="g10"
     inkscape:groupmode="layer"
     inkscape:label="ink_ext_XXXXXX"
     transform="matrix(1.25,0,0,-1.25,0,19)"><g
       id="g12"
       transform="matrix(0.01216568,0,0,0.0121658,2.2977798,2.2826666)"><path
         d="m 435.832,9.64453 c 236.066,0 427.434,191.36747 427.434,427.42547 0,236.063 -191.368,427.43 -427.434,427.43 C 199.77,864.5 8.40234,673.133 8.40234,437.07 8.40234,201.012 199.77,9.64453 435.832,9.64453"
         style="fill:#fac536;fill-opacity:1;fill-rule:evenodd;stroke:none"
         id="path14"
         inkscape:connector-curvature="0" /><path
         d="M 435.832,45.9961 C 651.82,45.9961 826.91,221.09 826.91,437.07 826.91,653.059 651.82,828.148 435.832,828.148 219.848,828.148 44.7578,653.059 44.7578,437.07 44.7578,221.09 219.848,45.9961 435.832,45.9961"
         style="fill:#fac536;fill-opacity:1;fill-rule:evenodd;stroke:none"
         id="path16"
         inkscape:connector-curvature="0" /><path
         d="m 186.305,472.652 499.058,0 c 19.313,0 35.114,-15.8 35.114,-35.117 l 0,-0.93 c 0,-19.316 -15.801,-35.113 -35.114,-35.113 l -499.058,0 c -19.317,0 -35.114,15.797 -35.114,35.113 l 0,0.93 c 0,19.317 15.797,35.117 35.114,35.117"
         style="fill:#975914;fill-opacity:1;fill-rule:evenodd;stroke:none"
         id="path18"
         inkscape:connector-curvature="0" /></g></g></svg>